<?xml version="1.0" encoding="UTF-8" standalone="no"?>
<svg
   xmlns:dc="http://purl.org/dc/elements/1.1/"
   xmlns:cc="http://creativecommons.org/ns#"
   xmlns:rdf="http://www.w3.org/1999/02/22-rdf-syntax-ns#"
   xmlns:svg="http://www.w3.org/2000/svg"
   xmlns="http://www.w3.org/2000/svg"
   xmlns:sodipodi="http://sodipodi.sourceforge.net/DTD/sodipodi-0.dtd"
   xmlns:inkscape="http://www.inkscape.org/namespaces/inkscape"
   sodipodi:docname="shears_right.svg"
   inkscape:version="1.0beta2 (2b71d25, 2019-12-03)"
   id="svg8"
   version="1.1"
   viewBox="0 0 241.86741 104.49628"
   height="104.49628mm"
   width="241.86742mm">
  <style
     id="style10"></style>
  <defs
     id="defs2" />
  <sodipodi:namedview
     inkscape:window-maximized="0"
     inkscape:window-y="23"
     inkscape:window-x="0"
     inkscape:window-height="855"
     inkscape:window-width="1440"
     showgrid="false"
     inkscape:document-rotation="0"
     inkscape:current-layer="layer1"
     inkscape:document-units="mm"
     inkscape:cy="226.23074"
     inkscape:cx="491.30298"
     inkscape:zoom="0.35"
     inkscape:pageshadow="2"
     inkscape:pageopacity="0.0"
     borderopacity="1.0"
     bordercolor="#666666"
     pagecolor="#ffffff"
     id="base" />
  <metadata
     id="metadata5">
    <rdf:RDF>
      <cc:Work
         rdf:about="">
        <dc:format>image/svg+xml</dc:format>
        <dc:type
           rdf:resource="http://purl.org/dc/dcmitype/StillImage" />
        <dc:title></dc:title>
      </cc:Work>
    </rdf:RDF>
  </metadata>
  <g
     transform="translate(24.157246,-88.309783)"
     id="layer1"
     inkscape:groupmode="layer"
     inkscape:label="Layer 1">
    <path
       inkscape:connector-curvature="0"
       id="path26"
       d="m -21.266865,177.19713 c -3.663925,-6.5621 -3.856126,-14.59269 -0.51013,-21.31359 1.965627,-3.9482 3.199643,-5.41897 7.188934,-8.56809 4.5977871,-3.62951 7.4261122,-4.92696 13.1950265,-6.05324 8.5202899,-1.6634 17.4645155,-0.004 24.7178415,4.58506 5.894111,3.72933 10.289549,9.6351 11.731455,15.7625 0.411686,1.74943 0.60029,2.17735 0.977915,2.21874 2.254482,0.2471 17.549023,-2.67835 26.594816,-5.08693 9.99086,-2.66023 22.461725,-6.41248 32.447801,-9.76295 l 2.411516,-0.8091 7.94566,2.66822 c 4.37011,1.46753 11.12093,3.73166 15.00182,5.03142 3.88089,1.29975 13.91971,4.66729 22.3085,7.48342 14.46227,4.85499 21.99848,7.38262 57.33179,19.22888 8.26572,2.77126 15.12824,4.96068 15.25005,4.86537 0.12182,-0.0953 0.70806,-0.0174 1.30275,0.17313 l 1.08129,0.3464 -0.25933,2.41984 -0.25933,2.41986 -8.25461,-1.65407 C 154.44143,180.23213 102.52627,170.65422 87.084415,168.67124 c -8.708984,-1.11832 -21.587082,-0.78263 -32.851491,0.85646 -4.930419,0.71742 -12.215735,2.23535 -16.54705,3.44764 l -2.937647,0.82222 -0.56891,1.566 c -2.557128,7.03888 -9.693771,13.25327 -18.01913,15.69052 -11.5170101,3.37162 -24.0274953,0.52217 -32.383082,-7.3757 -2.219786,-2.09818 -3.554039,-3.81259 -5.044005,-6.48124 z m 12.0097355,2.6766 c 2.415654,1.78558 4.4055645,2.82337 7.1996262,3.75476 13.6629873,4.55453 28.6535563,-2.72174 30.1484453,-14.63374 0.61107,-4.86928 -0.542467,-8.39495 -4.157079,-12.70579 -1.834734,-2.18819 -2.429704,-2.73391 -4.340324,-3.98147 -5.777056,-3.77218 -12.9928664,-5.09701 -19.85864589,-3.64608 -4.13269661,0.87336 -6.32669601,1.87265 -9.53570831,4.34321 -2.9406968,2.26403 -4.3552208,4.00835 -5.7276808,7.06334 -1.418356,3.15716 -1.493349,8.02565 -0.178425,11.58233 1.027713,2.7798 3.707296,6.19625 6.4497915,8.22344 z M 95.118785,164.65726 c 2.932658,1.11859 6.238295,-1.38966 6.012855,-4.56244 -0.22246,-3.13084 -3.414278,-5.077 -6.312153,-3.84875 -3.757786,1.59274 -3.567647,6.93624 0.299298,8.41119 z M -7.3818894,123.68022 c -2.16885,-4.55389 -2.8559196,-8.73822 -2.2241418,-13.54532 0.6656363,-5.06474 2.4059594,-8.7978 5.9129408,-12.683468 9.618575,-10.657192 28.0602184,-12.223357 41.2203774,-3.500667 4.309711,2.856521 8.377111,7.605355 10.320005,12.048985 1.226046,2.80409 2.047517,6.74706 2.010256,9.64902 -0.02115,1.64755 0.100584,2.44962 0.410206,2.70256 0.242149,0.19784 2.132367,1.83253 4.200469,3.63265 8.470257,7.37271 16.880899,13.98904 21.842428,17.18257 2.877617,1.85223 4.254373,2.51928 9.452384,4.57983 2.140063,0.84834 3.881953,1.61676 3.87087,1.70761 -0.01109,0.0908 -3.081118,1.25548 -6.822279,2.58806 l -6.802101,2.42291 -5.905334,-4.69336 c -3.247932,-2.58135 -9.313966,-7.39311 -13.480067,-10.69282 -4.166102,-3.2997 -8.075237,-6.41273 -8.686981,-6.91785 -1.239667,-1.02358 -1.0053,-1.12777 -2.798612,1.24405 -4.37949,5.79228 -11.978531,9.86916 -19.91737,10.68565 -8.74325,0.89924 -17.2289581,-1.39107 -24.25169998,-6.54556 -1.75641673,-1.28917 -2.47523882,-2.01775 -4.82865152,-4.89433 -1.9954395,-2.43902 -2.9759181,-3.82247 -3.5226989,-4.97052 z m 12.7634114,3.90641 c 3.9192393,2.88243 8.030007,4.44989 13.177144,5.02449 4.24756,0.47417 7.440456,0.14676 11.29656,-1.15845 2.659565,-0.90019 2.801755,-0.98191 5.854447,-3.3644 2.509963,-1.95877 3.295247,-2.69596 3.971002,-3.72676 3.952989,-6.03032 3.574101,-13.46545 -0.982997,-19.28982 -4.180875,-5.343529 -10.200314,-8.477666 -17.641235,-9.185266 -6.541684,-0.622078 -12.0733745,0.852807 -16.783315,4.474856 -4.06440923,3.1256 -5.901417,6.20725 -6.4694749,10.85277 -0.3859291,3.15609 -0.073149,5.49898 1.1058496,8.28331 0.63825297,1.50731 1.17894377,2.32232 2.9780834,4.48902 1.3276963,1.59889 2.711395,3.02472 3.4939359,3.60025 z"
       style="fill:#000000;stroke-width:0.264583" />
  </g>
</svg>
