<?xml version="1.0" encoding="UTF-8" standalone="no"?>
<svg
   xmlns:dc="http://purl.org/dc/elements/1.1/"
   xmlns:cc="http://creativecommons.org/ns#"
   xmlns:rdf="http://www.w3.org/1999/02/22-rdf-syntax-ns#"
   xmlns:svg="http://www.w3.org/2000/svg"
   xmlns="http://www.w3.org/2000/svg"
   xmlns:sodipodi="http://sodipodi.sourceforge.net/DTD/sodipodi-0.dtd"
   xmlns:inkscape="http://www.inkscape.org/namespaces/inkscape"
   sodipodi:docname="shears_left.svg"
   inkscape:version="1.0beta2 (2b71d25, 2019-12-03)"
   id="svg8"
   version="1.1"
   viewBox="0 0 240.83317 105.77565"
   height="105.77565mm"
   width="240.83318mm">
  <style
     id="style10"></style>
  <defs
     id="defs2" />
  <sodipodi:namedview
     inkscape:window-maximized="0"
     inkscape:window-y="23"
     inkscape:window-x="0"
     inkscape:window-height="855"
     inkscape:window-width="1440"
     showgrid="false"
     inkscape:document-rotation="0"
     inkscape:current-layer="layer1"
     inkscape:document-units="mm"
     inkscape:cy="373.19971"
     inkscape:cx="535.44943"
     inkscape:zoom="0.35"
     inkscape:pageshadow="2"
     inkscape:pageopacity="0.0"
     borderopacity="1.0"
     bordercolor="#666666"
     pagecolor="#ffffff"
     id="base" />
  <metadata
     id="metadata5">
    <rdf:RDF>
      <cc:Work
         rdf:about="">
        <dc:format>image/svg+xml</dc:format>
        <dc:type
           rdf:resource="http://purl.org/dc/dcmitype/StillImage" />
        <dc:title></dc:title>
      </cc:Work>
    </rdf:RDF>
  </metadata>
  <g
     transform="translate(35.837662,-49.424242)"
     id="layer1"
     inkscape:groupmode="layer"
     inkscape:label="Layer 1">
    <path
       inkscape:connector-curvature="0"
       id="path26"
       d="m 182.94068,54.035594 c 6.27758,4.132481 10.15211,11.169201 10.28318,18.675798 0.077,4.409767 -0.33957,6.28392 -2.42668,10.918064 -2.40547,5.341043 -4.31656,7.796763 -8.9157,11.456908 -6.79266,5.405746 -15.49405,8.058786 -24.0464,7.332496 -6.94982,-0.59039 -13.57373,-3.803127 -17.67927,-8.57478 -1.17217,-1.362348 -1.53689,-1.655042 -1.89104,-1.517593 -2.11433,0.820598 -14.33552,10.470653 -21.25074,16.779963 -7.63768,6.96849 -16.97215,16.04977 -24.287226,23.62849 l -1.766501,1.83018 -8.280688,1.29735 c -4.554379,0.71354 -11.588531,1.81834 -15.631454,2.45509 -4.042918,0.63675 -14.503371,2.27906 -23.245459,3.64956 -15.071348,2.36277 -22.923893,3.59602 -59.738277,9.38202 -8.612195,1.35356 -15.710995,2.57616 -15.775115,2.71691 -0.06413,0.14074 -0.620221,0.34202 -1.235756,0.44726 l -1.119176,0.19137 -0.886016,-2.26668 -0.886024,-2.2667 8.08705,-2.33969 C 25.63866,132.38539 76.119519,116.93862 90.735362,111.57576 c 8.2431,-3.02462 19.514728,-9.26229 28.753388,-15.912155 4.04376,-2.910629 9.80774,-7.617693 13.09168,-10.691083 l 2.22726,-2.084482 -0.21751,-1.651878 c -0.97769,-7.424881 2.48821,-16.230439 8.75099,-22.2329 8.66368,-8.303606 21.07822,-11.545615 32.13473,-8.391889 2.93732,0.837828 4.91191,1.743584 7.46481,3.424196 z m -11.89053,3.164413 c -2.96692,-0.470124 -5.21119,-0.473118 -8.11989,-0.0108 -14.22357,2.260703 -24.16832,15.630945 -20.00047,26.889699 1.70368,4.602253 4.35335,7.198453 9.54883,9.356186 2.63718,1.095291 3.41679,1.305075 5.68746,1.530765 6.86572,0.682398 13.87921,-1.470289 19.30184,-5.924401 3.26403,-2.681054 4.74982,-4.579651 6.45759,-8.251831 1.56497,-3.365175 2.01551,-5.5653 1.8242,-8.908953 -0.19772,-3.455474 -2.3767,-7.809769 -5.18386,-10.359046 -2.19401,-1.99244 -6.14732,-3.787866 -9.5157,-4.321615 z M 85.458024,118.843 c -3.118016,0.36015 -4.894145,4.11033 -3.230723,6.82149 1.641435,2.67533 5.371102,2.92993 7.375813,0.50353 2.599576,-3.14642 -0.03374,-7.79989 -4.14509,-7.32502 z M 195.30467,107.92421 c 4.02479,3.04023 6.56436,6.43599 8.22101,10.99262 1.74542,4.80086 1.92308,8.91581 0.60361,13.98103 -3.61888,13.89231 -19.25939,23.78785 -34.95932,22.11832 -5.14144,-0.54675 -10.94068,-2.88426 -14.71412,-5.93087 -2.38119,-1.92252 -4.92869,-5.04214 -6.23411,-7.63417 -0.74115,-1.47159 -1.2191,-2.1271 -1.61049,-2.20872 -0.30609,-0.0639 -2.73723,-0.64244 -5.40249,-1.28577 -10.91602,-2.63488 -21.43027,-4.62613 -27.3055,-5.17125 -3.40755,-0.31618 -4.93678,-0.27306 -10.49927,0.29618 -2.29012,0.23436 -4.190077,0.35597 -4.22214,0.27025 -0.03204,-0.0857 2.15473,-2.53507 4.85955,-5.44299 l 4.91783,-5.28716 7.40442,1.44057 c 4.07243,0.79232 11.67404,2.26383 16.89246,3.27004 5.21843,1.0062 10.12276,1.9653 10.89852,2.13132 1.57204,0.33643 1.41215,0.53697 1.90936,-2.39462 1.21422,-7.15934 6.07629,-14.28161 12.74366,-18.66773 7.34294,-4.83056 15.92849,-6.71232 24.53705,-5.37798 2.15303,0.33373 3.12687,0.64864 6.54179,2.1155 2.89547,1.24372 4.40351,2.01899 5.41818,2.78543 z m -13.12647,2.42086 c -4.80693,-0.74983 -9.17729,-0.24458 -14.00926,1.61963 -3.98747,1.53839 -6.66945,3.30158 -9.48888,6.23822 -1.94458,2.02541 -2.03305,2.1635 -3.64274,5.68544 -1.32359,2.89565 -1.68034,3.91195 -1.80448,5.13823 -0.72601,7.17383 3.0395,13.5961 9.76932,16.66205 6.17422,2.81283 12.96071,2.81731 19.88924,0.0131 6.09123,-2.46528 10.31911,-6.32533 12.82752,-11.71147 2.16463,-4.64793 2.3732,-8.2295 0.73456,-12.61338 -1.11327,-2.97833 -2.47141,-4.91287 -4.80174,-6.83955 -1.26154,-1.04301 -2.11719,-1.51677 -4.71289,-2.60941 -1.91549,-0.80628 -3.80086,-1.43318 -4.76065,-1.5829 z"
       style="fill:#000000;stroke-width:0.264583" />
  </g>
</svg>
